<?xml version="1.0" encoding="UTF-8" standalone="no"?>
<!DOCTYPE svg PUBLIC "-//W3C//DTD SVG 1.1//EN"
 "http://www.w3.org/Graphics/SVG/1.1/DTD/svg11.dtd">
<!-- Generated by graphviz version 2.40.1 (20161225.0304)
 -->
<!-- Title: Tree Pages: 1 -->
<svg width="1215pt" height="433pt"
 viewBox="0.00 0.00 1214.50 433.00" xmlns="http://www.w3.org/2000/svg" xmlns:xlink="http://www.w3.org/1999/xlink">
<g id="graph0" class="graph" transform="scale(1 1) rotate(0) translate(4 429)">
<title>Tree</title>
<polygon fill="#ffffff" stroke="transparent" points="-4,4 -4,-429 1210.5,-429 1210.5,4 -4,4"/>
<!-- 0 -->
<g id="node1" class="node">
<title>0</title>
<polygon fill="#ffffff" stroke="#000000" points="671,-425 516,-425 516,-342 671,-342 671,-425"/>
<text text-anchor="middle" x="593.5" y="-409.8" font-family="Times,serif" font-size="14.00" fill="#000000">duration &lt;= 0.205</text>
<text text-anchor="middle" x="593.5" y="-394.8" font-family="Times,serif" font-size="14.00" fill="#000000">gini = 0.5</text>
<text text-anchor="middle" x="593.5" y="-379.8" font-family="Times,serif" font-size="14.00" fill="#000000">samples = 51746</text>
<text text-anchor="middle" x="593.5" y="-364.8" font-family="Times,serif" font-size="14.00" fill="#000000">value = [25873, 25873]</text>
<text text-anchor="middle" x="593.5" y="-349.8" font-family="Times,serif" font-size="14.00" fill="#000000">class = yes</text>
</g>
<!-- 1 -->
<g id="node2" class="node">
<title>1</title>
<polygon fill="#edaa79" stroke="#000000" points="523,-306 376,-306 376,-223 523,-223 523,-306"/>
<text text-anchor="middle" x="449.5" y="-290.8" font-family="Times,serif" font-size="14.00" fill="#000000">previous &lt;= 0.05</text>
<text text-anchor="middle" x="449.5" y="-275.8" font-family="Times,serif" font-size="14.00" fill="#000000">gini = 0.37</text>
<text text-anchor="middle" x="449.5" y="-260.8" font-family="Times,serif" font-size="14.00" fill="#000000">samples = 20989</text>
<text text-anchor="middle" x="449.5" y="-245.8" font-family="Times,serif" font-size="14.00" fill="#000000">value = [15838, 5151]</text>
<text text-anchor="middle" x="449.5" y="-230.8" font-family="Times,serif" font-size="14.00" fill="#000000">class = yes</text>
</g>
<!-- 0&#45;&gt;1 -->
<g id="edge1" class="edge">
<title>0&#45;&gt;1</title>
<path fill="none" stroke="#000000" d="M543.1358,-341.8796C531.8015,-332.513 519.6785,-322.4948 508.0419,-312.8784"/>
<polygon fill="#000000" stroke="#000000" points="510.0173,-309.9703 500.0792,-306.2981 505.5581,-315.3663 510.0173,-309.9703"/>
<text text-anchor="middle" x="502.4449" y="-327.4859" font-family="Times,serif" font-size="14.00" fill="#000000">True</text>
</g>
<!-- 8 -->
<g id="node9" class="node">
<title>8</title>
<polygon fill="#99ccf2" stroke="#000000" points="831,-306 676,-306 676,-223 831,-223 831,-306"/>
<text text-anchor="middle" x="753.5" y="-290.8" font-family="Times,serif" font-size="14.00" fill="#000000">contact &lt;= 0.75</text>
<text text-anchor="middle" x="753.5" y="-275.8" font-family="Times,serif" font-size="14.00" fill="#000000">gini = 0.44</text>
<text text-anchor="middle" x="753.5" y="-260.8" font-family="Times,serif" font-size="14.00" fill="#000000">samples = 30757</text>
<text text-anchor="middle" x="753.5" y="-245.8" font-family="Times,serif" font-size="14.00" fill="#000000">value = [10035, 20722]</text>
<text text-anchor="middle" x="753.5" y="-230.8" font-family="Times,serif" font-size="14.00" fill="#000000">class = no</text>
</g>
<!-- 0&#45;&gt;8 -->
<g id="edge8" class="edge">
<title>0&#45;&gt;8</title>
<path fill="none" stroke="#000000" d="M649.4602,-341.8796C662.3708,-332.2774 676.2021,-321.9903 689.4282,-312.1534"/>
<polygon fill="#000000" stroke="#000000" points="691.6361,-314.8732 697.5714,-306.0969 687.4586,-309.2564 691.6361,-314.8732"/>
<text text-anchor="middle" x="693.9366" y="-327.1313" font-family="Times,serif" font-size="14.00" fill="#000000">False</text>
</g>
<!-- 2 -->
<g id="node3" class="node">
<title>2</title>
<polygon fill="#ea9b62" stroke="#000000" points="301,-187 154,-187 154,-104 301,-104 301,-187"/>
<text text-anchor="middle" x="227.5" y="-171.8" font-family="Times,serif" font-size="14.00" fill="#000000">month &lt;= 0.864</text>
<text text-anchor="middle" x="227.5" y="-156.8" font-family="Times,serif" font-size="14.00" fill="#000000">gini = 0.286</text>
<text text-anchor="middle" x="227.5" y="-141.8" font-family="Times,serif" font-size="14.00" fill="#000000">samples = 16126</text>
<text text-anchor="middle" x="227.5" y="-126.8" font-family="Times,serif" font-size="14.00" fill="#000000">value = [13341, 2785]</text>
<text text-anchor="middle" x="227.5" y="-111.8" font-family="Times,serif" font-size="14.00" fill="#000000">class = yes</text>
</g>
<!-- 1&#45;&gt;2 -->
<g id="edge2" class="edge">
<title>1&#45;&gt;2</title>
<path fill="none" stroke="#000000" d="M375.8856,-225.04C354.8086,-213.742 331.6955,-201.3525 310.1165,-189.7854"/>
<polygon fill="#000000" stroke="#000000" points="311.7611,-186.6959 301.2939,-185.0562 308.4539,-192.8654 311.7611,-186.6959"/>
</g>
<!-- 5 -->
<g id="node6" class="node">
<title>5</title>
<polygon fill="#fef8f5" stroke="#000000" points="519.5,-187 379.5,-187 379.5,-104 519.5,-104 519.5,-187"/>
<text text-anchor="middle" x="449.5" y="-171.8" font-family="Times,serif" font-size="14.00" fill="#000000">poutcome &lt;= 0.5</text>
<text text-anchor="middle" x="449.5" y="-156.8" font-family="Times,serif" font-size="14.00" fill="#000000">gini = 0.5</text>
<text text-anchor="middle" x="449.5" y="-141.8" font-family="Times,serif" font-size="14.00" fill="#000000">samples = 4863</text>
<text text-anchor="middle" x="449.5" y="-126.8" font-family="Times,serif" font-size="14.00" fill="#000000">value = [2497, 2366]</text>
<text text-anchor="middle" x="449.5" y="-111.8" font-family="Times,serif" font-size="14.00" fill="#000000">class = yes</text>
</g>
<!-- 1&#45;&gt;5 -->
<g id="edge5" class="edge">
<title>1&#45;&gt;5</title>
<path fill="none" stroke="#000000" d="M449.5,-222.8796C449.5,-214.6838 449.5,-205.9891 449.5,-197.5013"/>
<polygon fill="#000000" stroke="#000000" points="453.0001,-197.298 449.5,-187.2981 446.0001,-197.2981 453.0001,-197.298"/>
</g>
<!-- 3 -->
<g id="node4" class="node">
<title>3</title>
<polygon fill="#ea985d" stroke="#000000" points="147,-68 0,-68 0,0 147,0 147,-68"/>
<text text-anchor="middle" x="73.5" y="-52.8" font-family="Times,serif" font-size="14.00" fill="#000000">gini = 0.258</text>
<text text-anchor="middle" x="73.5" y="-37.8" font-family="Times,serif" font-size="14.00" fill="#000000">samples = 15554</text>
<text text-anchor="middle" x="73.5" y="-22.8" font-family="Times,serif" font-size="14.00" fill="#000000">value = [13186, 2368]</text>
<text text-anchor="middle" x="73.5" y="-7.8" font-family="Times,serif" font-size="14.00" fill="#000000">class = yes</text>
</g>
<!-- 2&#45;&gt;3 -->
<g id="edge3" class="edge">
<title>2&#45;&gt;3</title>
<path fill="none" stroke="#000000" d="M170.1561,-103.9815C156.7006,-94.2394 142.3869,-83.8759 129.0133,-74.193"/>
<polygon fill="#000000" stroke="#000000" points="130.9763,-71.2933 120.8238,-68.2637 126.8711,-76.9632 130.9763,-71.2933"/>
</g>
<!-- 4 -->
<g id="node5" class="node">
<title>4</title>
<polygon fill="#83c1ef" stroke="#000000" points="290,-68 165,-68 165,0 290,0 290,-68"/>
<text text-anchor="middle" x="227.5" y="-52.8" font-family="Times,serif" font-size="14.00" fill="#000000">gini = 0.395</text>
<text text-anchor="middle" x="227.5" y="-37.8" font-family="Times,serif" font-size="14.00" fill="#000000">samples = 572</text>
<text text-anchor="middle" x="227.5" y="-22.8" font-family="Times,serif" font-size="14.00" fill="#000000">value = [155, 417]</text>
<text text-anchor="middle" x="227.5" y="-7.8" font-family="Times,serif" font-size="14.00" fill="#000000">class = no</text>
</g>
<!-- 2&#45;&gt;4 -->
<g id="edge4" class="edge">
<title>2&#45;&gt;4</title>
<path fill="none" stroke="#000000" d="M227.5,-103.9815C227.5,-95.618 227.5,-86.7965 227.5,-78.3409"/>
<polygon fill="#000000" stroke="#000000" points="231.0001,-78.2636 227.5,-68.2637 224.0001,-78.2637 231.0001,-78.2636"/>
</g>
<!-- 6 -->
<g id="node7" class="node">
<title>6</title>
<polygon fill="#f0b78e" stroke="#000000" points="440.5,-68 308.5,-68 308.5,0 440.5,0 440.5,-68"/>
<text text-anchor="middle" x="374.5" y="-52.8" font-family="Times,serif" font-size="14.00" fill="#000000">gini = 0.42</text>
<text text-anchor="middle" x="374.5" y="-37.8" font-family="Times,serif" font-size="14.00" fill="#000000">samples = 3299</text>
<text text-anchor="middle" x="374.5" y="-22.8" font-family="Times,serif" font-size="14.00" fill="#000000">value = [2309, 990]</text>
<text text-anchor="middle" x="374.5" y="-7.8" font-family="Times,serif" font-size="14.00" fill="#000000">class = yes</text>
</g>
<!-- 5&#45;&gt;6 -->
<g id="edge6" class="edge">
<title>5&#45;&gt;6</title>
<path fill="none" stroke="#000000" d="M421.5728,-103.9815C415.5762,-95.0666 409.2296,-85.6313 403.2041,-76.6734"/>
<polygon fill="#000000" stroke="#000000" points="406.0328,-74.6078 397.5473,-68.2637 400.2245,-78.5147 406.0328,-74.6078"/>
</g>
<!-- 7 -->
<g id="node8" class="node">
<title>7</title>
<polygon fill="#54aae9" stroke="#000000" points="590.5,-68 458.5,-68 458.5,0 590.5,0 590.5,-68"/>
<text text-anchor="middle" x="524.5" y="-52.8" font-family="Times,serif" font-size="14.00" fill="#000000">gini = 0.212</text>
<text text-anchor="middle" x="524.5" y="-37.8" font-family="Times,serif" font-size="14.00" fill="#000000">samples = 1564</text>
<text text-anchor="middle" x="524.5" y="-22.8" font-family="Times,serif" font-size="14.00" fill="#000000">value = [188, 1376]</text>
<text text-anchor="middle" x="524.5" y="-7.8" font-family="Times,serif" font-size="14.00" fill="#000000">class = no</text>
</g>
<!-- 5&#45;&gt;7 -->
<g id="edge7" class="edge">
<title>5&#45;&gt;7</title>
<path fill="none" stroke="#000000" d="M477.4272,-103.9815C483.4238,-95.0666 489.7704,-85.6313 495.7959,-76.6734"/>
<polygon fill="#000000" stroke="#000000" points="498.7755,-78.5147 501.4527,-68.2637 492.9672,-74.6078 498.7755,-78.5147"/>
</g>
<!-- 9 -->
<g id="node10" class="node">
<title>9</title>
<polygon fill="#80c0ee" stroke="#000000" points="827,-187 680,-187 680,-104 827,-104 827,-187"/>
<text text-anchor="middle" x="753.5" y="-171.8" font-family="Times,serif" font-size="14.00" fill="#000000">duration &lt;= 0.439</text>
<text text-anchor="middle" x="753.5" y="-156.8" font-family="Times,serif" font-size="14.00" fill="#000000">gini = 0.388</text>
<text text-anchor="middle" x="753.5" y="-141.8" font-family="Times,serif" font-size="14.00" fill="#000000">samples = 25364</text>
<text text-anchor="middle" x="753.5" y="-126.8" font-family="Times,serif" font-size="14.00" fill="#000000">value = [6679, 18685]</text>
<text text-anchor="middle" x="753.5" y="-111.8" font-family="Times,serif" font-size="14.00" fill="#000000">class = no</text>
</g>
<!-- 8&#45;&gt;9 -->
<g id="edge9" class="edge">
<title>8&#45;&gt;9</title>
<path fill="none" stroke="#000000" d="M753.5,-222.8796C753.5,-214.6838 753.5,-205.9891 753.5,-197.5013"/>
<polygon fill="#000000" stroke="#000000" points="757.0001,-197.298 753.5,-187.2981 750.0001,-197.2981 757.0001,-197.298"/>
</g>
<!-- 12 -->
<g id="node13" class="node">
<title>12</title>
<polygon fill="#f5cdb1" stroke="#000000" points="1060.5,-187 920.5,-187 920.5,-104 1060.5,-104 1060.5,-187"/>
<text text-anchor="middle" x="990.5" y="-171.8" font-family="Times,serif" font-size="14.00" fill="#000000">duration &lt;= 0.478</text>
<text text-anchor="middle" x="990.5" y="-156.8" font-family="Times,serif" font-size="14.00" fill="#000000">gini = 0.47</text>
<text text-anchor="middle" x="990.5" y="-141.8" font-family="Times,serif" font-size="14.00" fill="#000000">samples = 5393</text>
<text text-anchor="middle" x="990.5" y="-126.8" font-family="Times,serif" font-size="14.00" fill="#000000">value = [3356, 2037]</text>
<text text-anchor="middle" x="990.5" y="-111.8" font-family="Times,serif" font-size="14.00" fill="#000000">class = yes</text>
</g>
<!-- 8&#45;&gt;12 -->
<g id="edge12" class="edge">
<title>8&#45;&gt;12</title>
<path fill="none" stroke="#000000" d="M831.1027,-225.5349C856.8246,-212.6197 885.4768,-198.2332 911.3162,-185.259"/>
<polygon fill="#000000" stroke="#000000" points="912.9629,-188.3486 920.3291,-180.7335 909.8219,-182.0929 912.9629,-188.3486"/>
</g>
<!-- 10 -->
<g id="node11" class="node">
<title>10</title>
<polygon fill="#a6d3f3" stroke="#000000" points="748.5,-68 608.5,-68 608.5,0 748.5,0 748.5,-68"/>
<text text-anchor="middle" x="678.5" y="-52.8" font-family="Times,serif" font-size="14.00" fill="#000000">gini = 0.458</text>
<text text-anchor="middle" x="678.5" y="-37.8" font-family="Times,serif" font-size="14.00" fill="#000000">samples = 14209</text>
<text text-anchor="middle" x="678.5" y="-22.8" font-family="Times,serif" font-size="14.00" fill="#000000">value = [5038, 9171]</text>
<text text-anchor="middle" x="678.5" y="-7.8" font-family="Times,serif" font-size="14.00" fill="#000000">class = no</text>
</g>
<!-- 9&#45;&gt;10 -->
<g id="edge10" class="edge">
<title>9&#45;&gt;10</title>
<path fill="none" stroke="#000000" d="M725.5728,-103.9815C719.5762,-95.0666 713.2296,-85.6313 707.2041,-76.6734"/>
<polygon fill="#000000" stroke="#000000" points="710.0328,-74.6078 701.5473,-68.2637 704.2245,-78.5147 710.0328,-74.6078"/>
</g>
<!-- 11 -->
<g id="node12" class="node">
<title>11</title>
<polygon fill="#5baee9" stroke="#000000" points="906.5,-68 766.5,-68 766.5,0 906.5,0 906.5,-68"/>
<text text-anchor="middle" x="836.5" y="-52.8" font-family="Times,serif" font-size="14.00" fill="#000000">gini = 0.251</text>
<text text-anchor="middle" x="836.5" y="-37.8" font-family="Times,serif" font-size="14.00" fill="#000000">samples = 11155</text>
<text text-anchor="middle" x="836.5" y="-22.8" font-family="Times,serif" font-size="14.00" fill="#000000">value = [1641, 9514]</text>
<text text-anchor="middle" x="836.5" y="-7.8" font-family="Times,serif" font-size="14.00" fill="#000000">class = no</text>
</g>
<!-- 9&#45;&gt;11 -->
<g id="edge11" class="edge">
<title>9&#45;&gt;11</title>
<path fill="none" stroke="#000000" d="M784.4061,-103.9815C791.1108,-94.9747 798.2108,-85.4367 804.9403,-76.3965"/>
<polygon fill="#000000" stroke="#000000" points="807.8306,-78.3752 810.9943,-68.2637 802.2155,-74.1953 807.8306,-78.3752"/>
</g>
<!-- 13 -->
<g id="node14" class="node">
<title>13</title>
<polygon fill="#e89051" stroke="#000000" points="1056.5,-68 924.5,-68 924.5,0 1056.5,0 1056.5,-68"/>
<text text-anchor="middle" x="990.5" y="-52.8" font-family="Times,serif" font-size="14.00" fill="#000000">gini = 0.191</text>
<text text-anchor="middle" x="990.5" y="-37.8" font-family="Times,serif" font-size="14.00" fill="#000000">samples = 3026</text>
<text text-anchor="middle" x="990.5" y="-22.8" font-family="Times,serif" font-size="14.00" fill="#000000">value = [2703, 323]</text>
<text text-anchor="middle" x="990.5" y="-7.8" font-family="Times,serif" font-size="14.00" fill="#000000">class = yes</text>
</g>
<!-- 12&#45;&gt;13 -->
<g id="edge13" class="edge">
<title>12&#45;&gt;13</title>
<path fill="none" stroke="#000000" d="M990.5,-103.9815C990.5,-95.618 990.5,-86.7965 990.5,-78.3409"/>
<polygon fill="#000000" stroke="#000000" points="994.0001,-78.2636 990.5,-68.2637 987.0001,-78.2637 994.0001,-78.2636"/>
</g>
<!-- 14 -->
<g id="node15" class="node">
<title>14</title>
<polygon fill="#84c2ef" stroke="#000000" points="1206.5,-68 1074.5,-68 1074.5,0 1206.5,0 1206.5,-68"/>
<text text-anchor="middle" x="1140.5" y="-52.8" font-family="Times,serif" font-size="14.00" fill="#000000">gini = 0.4</text>
<text text-anchor="middle" x="1140.5" y="-37.8" font-family="Times,serif" font-size="14.00" fill="#000000">samples = 2367</text>
<text text-anchor="middle" x="1140.5" y="-22.8" font-family="Times,serif" font-size="14.00" fill="#000000">value = [653, 1714]</text>
<text text-anchor="middle" x="1140.5" y="-7.8" font-family="Times,serif" font-size="14.00" fill="#000000">class = no</text>
</g>
<!-- 12&#45;&gt;14 -->
<g id="edge14" class="edge">
<title>12&#45;&gt;14</title>
<path fill="none" stroke="#000000" d="M1046.3545,-103.9815C1059.3368,-94.3313 1073.1394,-84.0714 1086.0597,-74.4673"/>
<polygon fill="#000000" stroke="#000000" points="1088.4678,-77.0384 1094.4054,-68.2637 1084.2917,-71.4204 1088.4678,-77.0384"/>
</g>
</g>
</svg>